<svg width="54" height="56" viewBox="0 0 54 56" fill="none" xmlns="http://www.w3.org/2000/svg">
<path d="M48.9375 47.25C48.0052 47.25 47.25 46.4669 47.25 45.5C47.25 44.5331 48.0052 43.75 48.9375 43.75H51.0469C52.6711 43.75 54 42.3719 54 40.6875C54 39.0031 52.6711 37.625 51.0469 37.625H42.1875C41.0223 37.625 40.0781 36.6459 40.0781 35.4375C40.0781 34.2291 41.0223 33.25 42.1875 33.25H48.9375C50.3297 33.25 51.4688 32.0688 51.4688 30.625C51.4688 29.1812 50.3297 28 48.9375 28H35.4375V22.75H50.625C52.5952 22.75 54.1856 20.9755 53.9823 18.8913C53.806 17.0748 52.2256 15.75 50.4655 15.75H48.9375C48.0052 15.75 47.25 14.9669 47.25 14C47.25 13.0331 48.0052 12.25 48.9375 12.25H49.2387C50.3424 12.25 51.3473 11.4266 51.4578 10.2882C51.5844 8.97838 50.5963 7.875 49.3594 7.875H37.5469C36.8483 7.875 36.2813 7.287 36.2813 6.5625C36.2813 5.838 36.8483 5.25 37.5469 5.25H40.8012C41.9049 5.25 42.9098 4.42663 43.0203 3.28825C43.1469 1.97837 42.1588 0.875 40.9219 0.875H13.1988C12.0952 0.875 11.0903 1.69838 10.9797 2.83675C10.8532 4.14663 11.8412 5.25 13.0781 5.25H16.0313C16.9636 5.25 17.7188 6.03312 17.7188 7C17.7188 7.96688 16.9636 8.75 16.0313 8.75H5.22199C3.46193 8.75 1.88242 10.0747 1.70524 11.8913C1.50189 13.9755 3.09236 15.75 5.06252 15.75H7.17189C8.80286 15.75 10.125 17.1211 10.125 18.8125C10.125 20.5039 8.80286 21.875 7.17189 21.875H4.37824C2.61818 21.875 1.03868 23.1998 0.861488 25.0163C0.658144 27.1005 2.24861 28.875 4.21877 28.875H18.5625V38.5H5.06252C3.67033 38.5 2.53127 39.6813 2.53127 41.125C2.53127 42.5687 3.67033 43.75 5.06252 43.75C5.99486 43.75 6.75002 44.5331 6.75002 45.5C6.75002 46.4669 5.99486 47.25 5.06252 47.25H3.53449C1.77443 47.25 0.194925 48.5747 0.0177377 50.3913C-0.185606 52.4755 1.40486 54.25 3.37502 54.25H48.778C50.5381 54.25 52.1176 52.9253 52.2948 51.1087C52.4981 49.0245 50.9077 47.25 48.9375 47.25Z" fill="url(#paint0_radial)"/>
<path d="M42.1875 10.5H11.8125C9.94866 10.5 8.4375 12.0671 8.4375 14V45.5C8.4375 47.4329 9.94866 49 11.8125 49H42.1875C44.0513 49 45.5625 47.4329 45.5625 45.5V14C45.5625 12.0671 44.0513 10.5 42.1875 10.5Z" fill="url(#paint1_linear)"/>
<path d="M16.0312 24.5H17.7188C18.6511 24.5 19.4062 25.2831 19.4062 26.25V41.125C19.4062 42.0919 18.6511 42.875 17.7188 42.875H16.0312C15.0989 42.875 14.3438 42.0919 14.3438 41.125V26.25C14.3438 25.2831 15.0989 24.5 16.0312 24.5ZM16.859 21.875H16.8311C15.3208 21.875 14.3438 20.706 14.3438 19.25C14.3438 17.7573 15.352 16.625 16.891 16.625C18.4292 16.625 19.3784 17.7573 19.4062 19.25C19.4062 20.706 18.4292 21.875 16.859 21.875ZM37.9688 42.875H36.2812C35.3489 42.875 34.5938 42.0919 34.5938 41.125V32.9245C34.5938 30.5191 33.3231 28.8785 31.0171 28.8785C29.3693 28.8785 28.3736 29.9854 27.9577 31.0529C27.8049 31.4379 27.8438 32.4975 27.8438 33.0312V41.125C27.8438 42.0919 27.0945 42.875 26.1622 42.875H24.4688C23.5364 42.875 22.7812 42.0919 22.7812 41.125V26.25C22.7812 25.2831 23.5364 24.5 24.4688 24.5H26.1622C27.0945 24.5 27.8497 25.2831 27.8497 26.25V27.1434C28.6124 25.9219 30.0071 24.5 33.0522 24.5C36.8263 24.5 39.6562 26.7426 39.6562 32.2367V41.125C39.6562 42.0919 38.9011 42.875 37.9688 42.875Z" fill="white"/>
<defs>
<radialGradient id="paint0_radial" cx="0" cy="0" r="1" gradientUnits="userSpaceOnUse" gradientTransform="translate(27 27.5625) scale(26.3748 27.3516)">
<stop stop-color="#C5F1FF"/>
<stop offset="0.35" stop-color="#CDF3FF"/>
<stop offset="0.907" stop-color="#E4FAFF"/>
<stop offset="1" stop-color="#E9FBFF"/>
</radialGradient>
<linearGradient id="paint1_linear" x1="27" y1="51.9584" x2="27" y2="13.4584" gradientUnits="userSpaceOnUse">
<stop stop-color="#155CDE"/>
<stop offset="0.278" stop-color="#1F7FE5"/>
<stop offset="0.569" stop-color="#279CEB"/>
<stop offset="0.82" stop-color="#2CAFEF"/>
<stop offset="1" stop-color="#2EB5F0"/>
</linearGradient>
</defs>
</svg>
